<svg id="Layer_1" data-name="Layer 1" xmlns="http://www.w3.org/2000/svg" viewBox="0 0 1114.24 377.88"><defs><style>.cls-1{fill:#1d71b8;}.cls-2{fill:#1d1d1b;}.cls-3{fill:#044a70;}.cls-4{fill:#fff;}</style></defs><path class="cls-1" d="M1505.87,304.42h-5.09v-97h5.09Z" transform="translate(-1078.4 -67.06)"/><path class="cls-1" d="M1629.06,256c0,27-22.71,49-50.93,49s-51.06-22-51.06-49,22.85-49,51.06-49S1629.06,229,1629.06,256Zm-5.23,0c0-24.22-20.37-44-45.7-44s-45.83,19.82-45.83,44,20.64,43.91,45.83,43.91S1623.83,280.2,1623.83,256Z" transform="translate(-1078.4 -67.06)"/><path class="cls-2" d="M1720.58,275.93c0,18.72-15,29.73-37.58,29.73-16.52,0-24.91-1.51-40.33-9.22l7.16-15.28c12.8,6.2,21.75,7.43,33.86,7.43,10.6,0,16.93-3.85,16.93-11,0-6.6-6.47-9.49-20.65-12.8-20-4.54-36.06-10.18-36.06-29.32,0-17.07,13.63-29.18,35.79-29.18a94.15,94.15,0,0,1,37.16,7.85l-8,15.69c-8.53-3.58-20.51-6.47-29.59-6.47-9.92,0-15.42,4.41-15.42,10.46,0,6.88,6.88,9.77,21.47,13.08C1706.26,251.57,1720.58,258.17,1720.58,275.93Z" transform="translate(-1078.4 -67.06)"/><path class="cls-2" d="M1776,207.38c28.35,0,38,16.8,38,35,0,26.56-17.21,37.16-41.85,37.16H1755.8v24.91h-19.68v-97Zm-5.78,55.75c15.69,0,23.12-7.85,23.12-19.27,0-10.05-5.23-19.41-20.51-19.41H1755.8v38.68Z" transform="translate(-1078.4 -67.06)"/><path class="cls-2" d="M1911.06,207.38v97h-19.28V271.53h-44.73v32.89h-19.13v-97h19.13V254.6h44.73V207.38Z" transform="translate(-1078.4 -67.06)"/><path class="cls-2" d="M2005.61,287.36v17.06h-74.47v-97h71.58v17.07h-52.45v24.64h43.91v16.52h-43.91v21.75Z" transform="translate(-1078.4 -67.06)"/><path class="cls-2" d="M2062.85,279.37a31.74,31.74,0,0,1-3.71.14h-18v24.91h-19.69v-97h42.81c28.35,0,38,16.8,38,35,0,16.65-6.88,27.66-19.68,33.17l22.57,28.9h-23.54Zm-21.74-16.1h17.34c15.69,0,23.12-8,23.12-19.41,0-10.05-5.23-19.41-20.5-19.41h-20Z" transform="translate(-1078.4 -67.06)"/><path class="cls-2" d="M2192.64,287.36v17.06h-74.47v-97h71.58v17.07h-52.44v24.64h43.9v16.52h-43.9v21.75Z" transform="translate(-1078.4 -67.06)"/><path class="cls-1" d="M1303.23,281.86c0,1.78-.06,3.56-.22,5.3,0,.59-.09,1.15-.12,1.75s-.19,1.37-.28,2.08A70.28,70.28,0,0,1,1264,344.93c-.65.31-1.31.59-1.93.91-1.65.74-3.3,1.43-5,2.05-1.27.47-2.58.94-3.92,1.31a67.65,67.65,0,0,1-14.09,2.68c-.31.06-.59.06-.9.09-1.75.13-3.46.19-5.24.19a70.31,70.31,0,1,1,69-83.69c.41,2.18.72,4.36.94,6.6,0,.31.06.59.09.91C1303.14,277.91,1303.23,279.9,1303.23,281.86Z" transform="translate(-1078.4 -67.06)"/><path class="cls-3" d="M1303.23,281.86c0,1.78-.06,3.56-.22,5.3,0,.59-.09,1.15-.12,1.75s-.19,1.37-.28,2.08A70.28,70.28,0,0,1,1264,344.93c-.65.31-1.31.59-1.93.91-1.65.74-3.3,1.43-5,2.05-1.27.47-2.58.94-3.92,1.31a67.65,67.65,0,0,1-14.09,2.68c-11.9-10.22-23-19.72-31-26.3-3.8-3.15-6.92-5.64-9.1-7.23a32.4,32.4,0,0,1-3.4-2.86c-7-6.81-11.51-17.11-12.62-28.22,0-.34-.07-.68-.1-1-.09-1.06-.13-2.11-.15-3.18,0-.4-.06-.8-.06-1.21,0-.71,0-1.4,0-2.08,0-1.35.19-2.7.35-4h0A49.87,49.87,0,0,1,1201,243a1,1,0,0,1,.31-.25,61.42,61.42,0,0,1,6-4.12c1-.62,2.06-1.21,3.09-1.74h0l.34-.19c17.39-8.94,33.06-5.36,43.69-.28a.34.34,0,0,0,.22.1,57.84,57.84,0,0,1,14,9.37l34.18,29.2c0,.31.06.59.09.91C1303.14,277.91,1303.23,279.9,1303.23,281.86Z" transform="translate(-1078.4 -67.06)"/><path class="cls-2" d="M1311.61,231.2a93.58,93.58,0,0,0-129.37-28,89.46,89.46,0,0,0-10.28,7.67c-1.78,1.5-3.49,3.08-5.15,4.74a93.59,93.59,0,0,0-27.45,70.29,91.09,91.09,0,0,0,2.43,17.55,93.63,93.63,0,0,0,134.93,61.16,78,78,0,0,0,6.85-4,88.61,88.61,0,0,0,11.4-8.6,93.6,93.6,0,0,0,16.64-120.74Zm-23.9,112.52,0,0a85.52,85.52,0,0,1-10,7.57c-2,1.28-4,2.46-6.05,3.55a82.74,82.74,0,0,1-119.15-54,81.32,81.32,0,0,1-2.12-15.48,82.65,82.65,0,1,1,137.38,58.33Z" transform="translate(-1078.4 -67.06)"/><path class="cls-1" d="M1181.23,374.57a97.45,97.45,0,0,0,102,1.9l-21.79,30-28,38.49Z" transform="translate(-1078.4 -67.06)"/><path class="cls-4" d="M1258.59,275.76a115.83,115.83,0,0,0,4.92-18.06,115.64,115.64,0,0,0-18.68-1.16q-3.36.07-6.65.34,2.29,2.33,4.43,4.8h0a5.36,5.36,0,0,1,6.33,8.14h0a101.12,101.12,0,0,1,7.21,12.06Q1257.46,278.88,1258.59,275.76Z" transform="translate(-1078.4 -67.06)"/><path class="cls-4" d="M1189.76,256a50.08,50.08,0,0,0-6.78,19.74,105.59,105.59,0,0,1,9.42-6.7A111,111,0,0,1,1189.76,256Z" transform="translate(-1078.4 -67.06)"/><path class="cls-4" d="M1198.12,265.69h0a5.36,5.36,0,0,1,9.35-4.46h0a100.4,100.4,0,0,1,24.14-6.6,105.25,105.25,0,0,0-24.33-16.06,50.48,50.48,0,0,0-15,13.63,111,111,0,0,0,2.79,15.21C1196.08,266.81,1197.1,266.24,1198.12,265.69Z" transform="translate(-1078.4 -67.06)"/><path class="cls-4" d="M1276.78,257.25a50.31,50.31,0,0,0-8.64-11.28c-.24,2.76-.61,5.87-1.16,9.25C1270.63,255.83,1273.93,256.54,1276.78,257.25Z" transform="translate(-1078.4 -67.06)"/><path class="cls-4" d="M1244.89,253.56a118.76,118.76,0,0,1,19.14,1.2c.7-4.27,1.1-8.11,1.33-11.33a50.3,50.3,0,0,0-54.93-6.57,106.81,106.81,0,0,1,25,17.3Q1240.07,253.65,1244.89,253.56Z" transform="translate(-1078.4 -67.06)"/><path class="cls-4" d="M1203.39,270.06a5.36,5.36,0,0,1-4-1.78h0c-1.19.64-2.36,1.32-3.53,2a84.32,84.32,0,0,0,13,26.87,75.06,75.06,0,0,0,21.86,19.69h0a95.9,95.9,0,0,0,23.82-31.5h0a99.73,99.73,0,0,0-7.94-13.74h0a5.36,5.36,0,0,1-6.31-8.16h0q-2.79-3.22-5.88-6.2a97.18,97.18,0,0,0-25.76,6.61h0a4.68,4.68,0,0,1,.07.84A5.35,5.35,0,0,1,1203.39,270.06Z" transform="translate(-1078.4 -67.06)"/><path class="cls-4" d="M1278.6,260.81h0c-.56-1.21-1.16-2.4-1.82-3.55l1.82,3.55-.12,0c-3.28-.89-7.35-1.85-12-2.63a118.46,118.46,0,0,1-5,18.51c-1.08,3-2.28,5.89-3.58,8.7q2,4.25,3.58,8.71a120.57,120.57,0,0,1,6,24.37,50.35,50.35,0,0,0,11.18-57.63Z" transform="translate(-1078.4 -67.06)"/><path class="cls-4" d="M1256.15,288.85a99.45,99.45,0,0,1-19.62,26.63c-1,1-2.07,1.95-3.14,2.9.88.49,1.77.95,2.67,1.41a5.36,5.36,0,0,1,9.8,3,5.17,5.17,0,0,1-.14,1.19h0q4.54,1.68,9.45,3a51.15,51.15,0,0,0,9.56-6.16,119.47,119.47,0,0,0-6.14-25.84Q1257.45,291.85,1256.15,288.85Z" transform="translate(-1078.4 -67.06)"/><path class="cls-4" d="M1217.75,329.83l-3.58-1.29C1215.34,329,1216.54,329.44,1217.75,329.83Z" transform="translate(-1078.4 -67.06)"/><path class="cls-4" d="M1244.25,326.62a5.36,5.36,0,0,1-9.11-3.83v-.12h0q-2.13-1.05-4.17-2.21a105.68,105.68,0,0,1-13.22,9.37,50.6,50.6,0,0,0,33.12-1c-2.27-.68-4.47-1.42-6.62-2.23Z" transform="translate(-1078.4 -67.06)"/><path class="cls-4" d="M1206.48,298.92a86.52,86.52,0,0,1-13.26-27,102.26,102.26,0,0,0-10.56,7.81c0,.7-.05,1.4-.05,2.1a50.32,50.32,0,0,0,31.56,46.68,103.1,103.1,0,0,0,14.16-9.65A77.59,77.59,0,0,1,1206.48,298.92Z" transform="translate(-1078.4 -67.06)"/><path class="cls-2" d="M1163.14,122.51a36.8,36.8,0,0,0-3-3.27,47.12,47.12,0,0,0-7.54-6,48.11,48.11,0,0,0-58,76.46,46,46,0,0,0,5.85,4.46c1.16.75,2.34,1.43,3.53,2.06a48.12,48.12,0,0,0,45.4-.19,40.76,40.76,0,0,0,6.32-4.08A47.56,47.56,0,0,0,1167,179.78a49,49,0,0,0,6.39-15,44,44,0,0,0,1.21-9A47.9,47.9,0,0,0,1163.14,122.51Zm4.76,41a42.55,42.55,0,0,1-61.26,27.76,34.25,34.25,0,0,1-3.11-1.84,42.48,42.48,0,1,1,46-71.42A42.55,42.55,0,0,1,1169,155.51,45.74,45.74,0,0,1,1167.9,163.49Z" transform="translate(-1078.4 -67.06)"/><path class="cls-2" d="M1215.58,71a24.91,24.91,0,0,0-35.27,33.09,24,24,0,0,0,2,3.08,26.37,26.37,0,0,0,3.24,3.46,25.67,25.67,0,0,0,3,2.28c.6.4,1.22.74,1.84,1.09a25,25,0,0,0,32.63-8.54,25,25,0,0,0,4-12.43A24.88,24.88,0,0,0,1215.58,71Zm8,26a22.06,22.06,0,0,1-31.76,14.4c-.53-.31-1.06-.59-1.62-1a20.83,20.83,0,0,1-2.65-2,22.37,22.37,0,0,1-2.89-3.12,20.65,20.65,0,0,1-1.94-3,22,22,0,1,1,41.42-9.47A21.47,21.47,0,0,1,1223.53,97.05Z" transform="translate(-1078.4 -67.06)"/><path class="cls-2" d="M1158.35,120.56l2.82,3.5,21.16-16.86a22.72,22.72,0,0,1-2-3.06Z" transform="translate(-1078.4 -67.06)"/><polygon class="cls-2" points="74.64 121.83 69.19 126.96 91.85 152.33 97.23 148 74.64 121.83"/><path class="cls-1" d="M1097.78,153.71c0,.73,0,1.46.07,2.18,0,.24,0,.47.08.69s0,.58.09.87a28.78,28.78,0,0,0,15.79,22.05c.26.14.52.25.78.38.68.3,1.36.58,2.05.84s1.07.36,1.62.53a28.75,28.75,0,1,0-20-33A29.84,29.84,0,0,0,1097.78,153.71Z" transform="translate(-1078.4 -67.06)"/><path class="cls-1" d="M1188.6,92c0,.36,0,.68,0,1,0,.11,0,.22,0,.33s0,.27,0,.41a13.5,13.5,0,0,0,7.42,10.35c.1.06.24.11.35.19.33.14.65.28,1,.39l.74.24a13.07,13.07,0,0,0,3.89.57A13.47,13.47,0,1,0,1188.6,92Z" transform="translate(-1078.4 -67.06)"/><rect class="cls-2" x="343.09" y="23.4" width="3.62" height="353.83"/></svg>