<svg id="Layer_1" data-name="Layer 1" xmlns="http://www.w3.org/2000/svg" viewBox="0 0 320 320"><defs><style>.cls-1{fill:#1d70b7;}.cls-2{fill:#024a70;}.cls-3{fill:#1d1d1b;}.cls-4{fill:#fff;}</style></defs><path class="cls-1" d="M245.28,182c0,1.5-.05,3-.18,4.49,0,.5-.08,1-.11,1.47s-.16,1.17-.24,1.77a59.52,59.52,0,0,1-32.67,45.69c-.56.27-1.11.5-1.64.77-1.4.63-2.8,1.21-4.27,1.74-1.09.4-2.2.79-3.33,1.11a57.34,57.34,0,0,1-11.93,2.27c-.26,0-.5,0-.77.08-1.47.1-2.93.16-4.43.16a59.56,59.56,0,1,1,58.49-70.9c.34,1.85.61,3.69.79,5.59,0,.27.06.51.08.77C245.2,178.61,245.28,180.3,245.28,182Z"/><path class="cls-2" d="M245.28,182c0,1.5-.05,3-.18,4.49,0,.5-.08,1-.11,1.47s-.16,1.17-.24,1.77a59.52,59.52,0,0,1-32.67,45.69c-.56.27-1.11.5-1.64.77-1.4.63-2.8,1.21-4.27,1.74-1.09.4-2.2.79-3.33,1.11a57.34,57.34,0,0,1-11.93,2.27c-10.08-8.66-19.48-16.71-26.26-22.28-3.22-2.67-5.86-4.78-7.71-6.12a28.3,28.3,0,0,1-2.88-2.43c-6-5.77-9.75-14.49-10.69-23.9l-.09-.87c-.07-.89-.1-1.79-.12-2.69,0-.34,0-.68,0-1,0-.61,0-1.19,0-1.77.05-1.14.17-2.29.3-3.43h0A42.23,42.23,0,0,1,158.71,149a1,1,0,0,1,.26-.21,53.3,53.3,0,0,1,5.1-3.49c.87-.53,1.74-1,2.61-1.48h0l.3-.15c14.72-7.58,28-4.54,37-.24a.29.29,0,0,0,.19.08A49,49,0,0,1,216,151.47l29,24.73c0,.27.06.51.08.77C245.2,178.61,245.28,180.3,245.28,182Z"/><path class="cls-3" d="M252.38,139a79.28,79.28,0,0,0-109.59-23.76,76.13,76.13,0,0,0-8.71,6.5c-1.5,1.26-3,2.61-4.35,4a79.3,79.3,0,0,0-23.26,59.55,76.6,76.6,0,0,0,2.06,14.86A79.32,79.32,0,0,0,222.82,252c2-1,3.91-2.16,5.81-3.4a75.42,75.42,0,0,0,9.66-7.29A79.31,79.31,0,0,0,252.38,139Zm-20.24,95.31,0,0a71.9,71.9,0,0,1-8.5,6.41q-2.54,1.64-5.12,3a70,70,0,1,1,13.65-9.45Z"/><path class="cls-1" d="M141.94,260.48a82.53,82.53,0,0,0,86.38,1.62l-18.46,25.39L186.14,320.1Z"/><path class="cls-4" d="M207.46,176.79a99.09,99.09,0,0,0,4.18-15.3,97.66,97.66,0,0,0-15.83-1c-1.9,0-3.78.14-5.63.29,1.29,1.31,2.55,2.67,3.75,4.06h0a4.61,4.61,0,0,1,1.71-.33,4.53,4.53,0,0,1,3.65,7.23h0A84.27,84.27,0,0,1,205.4,182Q206.5,179.44,207.46,176.79Z"/><path class="cls-4" d="M149.16,160.05a42.43,42.43,0,0,0-5.74,16.72,89.23,89.23,0,0,1,8-5.67A95.57,95.57,0,0,1,149.16,160.05Z"/><path class="cls-4" d="M156.24,168.26h0a4.57,4.57,0,0,1,4.46-5.37,4.52,4.52,0,0,1,3.46,1.6h0a85.09,85.09,0,0,1,20.46-5.59A89.23,89.23,0,0,0,164,145.29a42.89,42.89,0,0,0-12.71,11.54,94.06,94.06,0,0,0,2.37,12.88C154.52,169.21,155.38,168.72,156.24,168.26Z"/><path class="cls-4" d="M222.88,161.11a42.67,42.67,0,0,0-7.32-9.56c-.21,2.34-.52,5-1,7.84C217.67,159.9,220.46,160.51,222.88,161.11Z"/><path class="cls-4" d="M195.86,158a99.77,99.77,0,0,1,16.21,1c.6-3.62.94-6.87,1.13-9.6a42.65,42.65,0,0,0-46.53-5.57,90.85,90.85,0,0,1,21.14,14.66Q191.79,158.07,195.86,158Z"/><path class="cls-4" d="M160.7,172a4.53,4.53,0,0,1-3.37-1.51h0c-1,.55-2,1.12-3,1.71a71.54,71.54,0,0,0,11,22.76,63.32,63.32,0,0,0,18.52,16.68h0a81,81,0,0,0,20.18-26.68h0a83.19,83.19,0,0,0-6.72-11.64h0a4.59,4.59,0,0,1-1.7.33,4.54,4.54,0,0,1-3.65-7.24h0q-2.37-2.73-5-5.25a82.36,82.36,0,0,0-21.82,5.6h0a4.17,4.17,0,0,1,.06.71A4.54,4.54,0,0,1,160.7,172Z"/><path class="cls-4" d="M224.42,164.13h0c-.48-1-1-2-1.54-3l1.54,3-.1,0a103,103,0,0,0-10.19-2.23,100.71,100.71,0,0,1-4.26,15.68q-1.37,3.8-3,7.37,1.66,3.59,3,7.38A102.31,102.31,0,0,1,215,212.94a42.62,42.62,0,0,0,9.47-48.81Z"/><path class="cls-4" d="M205.4,187.88a84.29,84.29,0,0,1-16.62,22.55c-.87.84-1.75,1.66-2.66,2.46.74.41,1.5.81,2.26,1.19a4.54,4.54,0,0,1,8.3,2.55,4.88,4.88,0,0,1-.11,1h0c2.56.94,5.23,1.79,8,2.52a42.31,42.31,0,0,0,8.09-5.21,100.08,100.08,0,0,0-5.2-21.89Q206.5,190.42,205.4,187.88Z"/><path class="cls-4" d="M172.87,222.59l-3-1.09C170.83,221.9,171.85,222.26,172.87,222.59Z"/><path class="cls-4" d="M195.32,219.87a4.54,4.54,0,0,1-7.72-3.24s0-.07,0-.1h0c-1.2-.6-2.38-1.23-3.52-1.88a91,91,0,0,1-11.21,7.94,42.93,42.93,0,0,0,12.84,2,42.49,42.49,0,0,0,15.22-2.79q-2.88-.87-5.61-1.89Z"/><path class="cls-4" d="M163.32,196.41a73.52,73.52,0,0,1-11.23-22.85,87,87,0,0,0-8.94,6.62c0,.59,0,1.18,0,1.77a42.61,42.61,0,0,0,26.73,39.55,87.23,87.23,0,0,0,12-8.18A65.66,65.66,0,0,1,163.32,196.41Z"/><path class="cls-3" d="M126.61,47a31.34,31.34,0,0,0-2.56-2.77,40.76,40.76,0,1,0-55.48,59.71,38.53,38.53,0,0,0,5,3.77c1,.64,2,1.22,3,1.75a40.77,40.77,0,0,0,38.46-.16,35.47,35.47,0,0,0,5.36-3.46,40.18,40.18,0,0,0,9.55-10.32,41.26,41.26,0,0,0,5.41-12.7,37.44,37.44,0,0,0,1-7.65A40.55,40.55,0,0,0,126.61,47Zm4,34.71A36,36,0,0,1,78.76,105.2a26.45,26.45,0,0,1-2.64-1.56,35.52,35.52,0,0,1-4.38-3.29,36,36,0,1,1,59.83-25.42A38.33,38.33,0,0,1,130.65,81.68Z"/><path class="cls-3" d="M171,3.37a21.11,21.11,0,0,0-29.88,28,20.91,20.91,0,0,0,4.47,5.54,19.94,19.94,0,0,0,2.56,1.93c.5.34,1,.63,1.55.93a21.14,21.14,0,0,0,27.64-7.24A21.09,21.09,0,0,0,171,3.37Zm6.73,22a18.19,18.19,0,0,1-2.48,5.81,18.66,18.66,0,0,1-24.41,6.38c-.45-.26-.9-.5-1.37-.81a19.15,19.15,0,0,1-2.25-1.69,19.66,19.66,0,0,1-2.45-2.64,17.17,17.17,0,0,1-1.64-2.54,18.65,18.65,0,1,1,35.08-8A17.34,17.34,0,0,1,177.76,25.41Z"/><path class="cls-3" d="M122.56,45.32l2.39,3L142.87,34a20.09,20.09,0,0,1-1.71-2.6Z"/><polygon class="cls-3" points="118.06 103.2 113.44 107.54 132.64 129.03 137.19 125.37 118.06 103.2"/><path class="cls-1" d="M71.25,73.4c0,.62,0,1.24.06,1.84,0,.21,0,.4.06.59s0,.5.08.74A24.4,24.4,0,0,0,84.82,95.25l.67.32q.86.38,1.74.72l1.36.44a24.36,24.36,0,1,0-16.9-28A25.15,25.15,0,0,0,71.25,73.4Z"/><path class="cls-1" d="M148.18,21.12a8,8,0,0,0,0,.86c0,.09,0,.18,0,.27s0,.23.05.35a11.4,11.4,0,0,0,6.28,8.77,3,3,0,0,1,.3.16c.27.12.55.23.83.33l.62.2a10.89,10.89,0,0,0,3.3.49A11.43,11.43,0,1,0,148.39,19,11,11,0,0,0,148.18,21.12Z"/></svg>